# xmcd
#
# Track frame offsets:
#	150
#	19340
#	32149
#	60510
#	78812
#	105572
#	143068
#	146590
#	162600
#	174566
#	191240
#	216564
#	239237
#	262868
#	277556
#	294802
#	303600
#	322063
#
# Disc length: 4409 seconds
#
# Revision: 1
# Processed by: cddbd v1.5.1PL2 Copyright (c) Steve Scherf et al.
# Submitted via: audiograbber 1.83.01
#
DISCID=0c113712
DTITLE=Marvin Gaye - The Master (1961-1984) - Disc 4
DYEAR=1995
DGENRE=Soul
TTITLE0=Got To Give It Up (Part 1)
TTITLE1=Here, My Dear
TTITLE2=When Did You Stop Loving Me, When Did I Stop Loving You
TTITLE3=Anger
TTITLE4=Anna's Song
TTITLE5=A Funky Space Reincarnation
TTITLE6=When Did You Stop Loving Me, When Did I Stop Loving You
TTITLE7=She Needs Me
TTITLE8=Why Did I Choose You
TTITLE9=Life Is For Learning
TTITLE10=Funk Me
TTITLE11=Love Me Now Or Love Me Later
TTITLE12=Ego Tripping Out
TTITLE13=The Star Spangled Banner
TTITLE14=I Heard It Through The Grapevine
TTITLE15=Rockin' After Midnight
TTITLE16=Sexual Healing
TTITLE17=The Lord's Prayer
EXTD=4 disc box set
EXTT0=
EXTT1=
EXTT2=
EXTT3=
EXTT4=
EXTT5=
EXTT6=
EXTT7=
EXTT8=
EXTT9=
EXTT10=
EXTT11=
EXTT12=
EXTT13=
EXTT14=
EXTT15=
EXTT16=
EXTT17=
PLAYORDER=
